<svg xmlns="http://www.w3.org/2000/svg" xmlns:xlink="http://www.w3.org/1999/xlink" width="1500" zoomAndPan="magnify" viewBox="0 0 1125 1124.99995" height="1500" preserveAspectRatio="xMidYMid meet" version="1.0"><defs><clipPath id="1b3880a435"><path d="M 729.757812 13.0625 L 955.296875 13.0625 L 955.296875 238.601562 L 729.757812 238.601562 Z M 729.757812 13.0625 " clip-rule="nonzero"/></clipPath><clipPath id="ac70dee589"><path d="M 170 126 L 842.914062 126 L 842.914062 1111.800781 L 170 1111.800781 Z M 170 126 " clip-rule="nonzero"/></clipPath></defs><g clip-path="url(#1b3880a435)"><path fill="#d7df23" d="M 925.535156 238.601562 L 955.296875 238.601562 L 955.296875 13.0625 L 729.757812 13.0625 L 729.757812 42.824219 C 823.765625 70.476562 897.882812 144.59375 925.535156 238.601562 Z M 925.535156 238.601562 " fill-opacity="1" fill-rule="nonzero"/></g><g clip-path="url(#ac70dee589)"><path fill="#ffffff" d="M 444.601562 704.246094 C 433.660156 704.246094 424.753906 695.34375 424.753906 684.398438 C 424.753906 673.457031 433.660156 664.550781 444.601562 664.550781 C 455.554688 664.550781 464.449219 673.457031 464.449219 684.398438 L 464.449219 704.246094 Z M 548.378906 684.398438 C 548.378906 673.457031 557.285156 664.550781 568.226562 664.550781 C 579.179688 664.550781 588.085938 673.457031 588.085938 684.398438 C 588.085938 695.34375 579.179688 704.246094 568.226562 704.246094 L 548.378906 704.246094 Z M 637.375 874.167969 L 548.378906 874.167969 L 548.378906 735.871094 L 568.226562 735.871094 C 568.785156 735.871094 569.320312 735.851562 569.855469 735.789062 C 597.484375 734.925781 619.710938 712.234375 619.710938 684.398438 C 619.710938 656.015625 596.621094 632.925781 568.226562 632.925781 C 540.390625 632.925781 517.703125 655.152344 516.839844 682.78125 C 516.785156 683.316406 516.757812 683.851562 516.757812 684.398438 L 516.757812 704.246094 L 496.074219 704.246094 L 496.074219 684.398438 C 496.074219 683.851562 496.054688 683.316406 496.003906 682.78125 C 495.136719 655.152344 472.449219 632.925781 444.601562 632.925781 C 416.222656 632.925781 393.128906 656.015625 393.128906 684.398438 C 393.128906 712.234375 415.355469 734.925781 442.988281 735.789062 C 443.523438 735.851562 444.058594 735.871094 444.601562 735.871094 L 464.449219 735.871094 L 464.449219 874.167969 L 375.578125 874.167969 C 356.421875 792.417969 319.660156 716.105469 268.824219 652.765625 C 225.09375 598.265625 201.964844 532.464844 201.941406 462.441406 C 201.878906 295.671875 337.488281 159.035156 504.21875 157.859375 C 504.957031 157.859375 505.699219 157.847656 506.429688 157.847656 C 587.375 157.847656 663.484375 189.207031 720.957031 246.269531 C 778.957031 303.867188 810.898438 380.601562 810.898438 462.339844 C 810.898438 530.949219 788.632812 595.710938 746.488281 649.644531 C 694.148438 716.632812 656.574219 794.003906 637.375 874.167969 Z M 677.257812 924.339844 C 677.257812 934.574219 668.929688 942.890625 658.707031 942.890625 L 354.136719 942.890625 C 343.914062 942.890625 335.585938 934.574219 335.585938 924.339844 C 335.585938 914.121094 343.914062 905.792969 354.136719 905.792969 L 658.707031 905.792969 C 668.929688 905.792969 677.257812 914.121094 677.257812 924.339844 Z M 658.707031 1011.609375 L 354.136719 1011.609375 C 343.914062 1011.609375 335.585938 1003.289062 335.585938 993.066406 C 335.585938 982.835938 343.914062 974.515625 354.136719 974.515625 L 658.707031 974.515625 C 668.929688 974.515625 677.257812 982.835938 677.257812 993.066406 C 677.257812 1003.289062 668.929688 1011.609375 658.707031 1011.609375 Z M 594.3125 1069.523438 C 592.5625 1075.886719 586.726562 1080.332031 580.128906 1080.332031 L 432.710938 1080.332031 C 426.113281 1080.332031 420.277344 1075.886719 418.527344 1069.523438 L 411.257812 1043.230469 L 601.582031 1043.230469 Z M 496.074219 874.167969 L 496.074219 735.871094 L 516.757812 735.871094 L 516.757812 874.167969 Z M 842.523438 462.339844 C 842.523438 372.109375 807.265625 287.40625 743.242188 223.828125 C 679.222656 160.257812 594.261719 125.566406 504 126.234375 C 319.9375 127.53125 170.257812 278.355469 170.316406 462.453125 C 170.339844 538.640625 196.570312 613.253906 244.160156 672.550781 C 290.804688 730.683594 324.859375 800.480469 343.304688 875.382812 C 320.832031 880.351562 303.960938 900.398438 303.960938 924.339844 C 303.960938 937.640625 309.199219 949.71875 317.671875 958.703125 C 309.199219 967.691406 303.960938 979.765625 303.960938 993.066406 C 303.960938 1020.726562 326.472656 1043.230469 354.136719 1043.230469 L 378.449219 1043.230469 L 388.035156 1077.953125 C 393.574219 1097.96875 411.9375 1111.957031 432.710938 1111.957031 L 580.128906 1111.957031 C 600.902344 1111.957031 619.269531 1097.96875 624.796875 1077.953125 L 634.402344 1043.230469 L 658.707031 1043.230469 C 686.367188 1043.230469 708.882812 1020.726562 708.882812 993.066406 C 708.882812 979.765625 703.640625 967.691406 695.167969 958.703125 C 703.640625 949.71875 708.882812 937.640625 708.882812 924.339844 C 708.882812 900.449219 692.082031 880.4375 669.679688 875.421875 C 688.242188 801.828125 723.179688 730.835938 771.410156 669.113281 C 817.929688 609.570312 842.523438 538.074219 842.523438 462.339844 " fill-opacity="1" fill-rule="nonzero"/></g></svg>