<svg xmlns="http://www.w3.org/2000/svg" xmlns:xlink="http://www.w3.org/1999/xlink" width="500" zoomAndPan="magnify" viewBox="0 0 375 374.999991" height="500" preserveAspectRatio="xMidYMid meet" version="1.0"><defs><g/><clipPath id="b070f2eec9"><path d="M 87.246094 5.328125 L 135.996094 5.328125 L 135.996094 54.078125 L 87.246094 54.078125 Z M 87.246094 5.328125 " clip-rule="nonzero"/></clipPath><clipPath id="9902eed9a9"><path d="M 14.054688 29.792969 L 111.554688 29.792969 L 111.554688 172.292969 L 14.054688 172.292969 Z M 14.054688 29.792969 " clip-rule="nonzero"/></clipPath></defs><g clip-path="url(#b070f2eec9)"><path fill="#d7df23" d="M 129.5625 54.078125 L 135.996094 54.078125 L 135.996094 5.328125 L 87.246094 5.328125 L 87.246094 11.761719 C 107.566406 17.738281 123.585938 33.757812 129.5625 54.078125 Z M 129.5625 54.078125 " fill-opacity="1" fill-rule="nonzero"/></g><g clip-path="url(#9902eed9a9)"><path fill="#ffffff" d="M 53.863281 113.585938 C 52.28125 113.585938 50.988281 112.296875 50.988281 110.714844 C 50.988281 109.128906 52.28125 107.839844 53.863281 107.839844 C 55.449219 107.839844 56.738281 109.128906 56.738281 110.714844 L 56.738281 113.585938 Z M 68.890625 110.714844 C 68.890625 109.128906 70.179688 107.839844 71.761719 107.839844 C 73.347656 107.839844 74.636719 109.128906 74.636719 110.714844 C 74.636719 112.296875 73.347656 113.585938 71.761719 113.585938 L 68.890625 113.585938 Z M 81.773438 138.1875 L 68.890625 138.1875 L 68.890625 118.164062 L 71.761719 118.164062 C 71.84375 118.164062 71.921875 118.164062 72 118.152344 C 76 118.027344 79.214844 114.742188 79.214844 110.714844 C 79.214844 106.605469 75.875 103.261719 71.761719 103.261719 C 67.734375 103.261719 64.449219 106.480469 64.324219 110.480469 C 64.316406 110.558594 64.308594 110.632812 64.308594 110.714844 L 64.308594 113.585938 L 61.316406 113.585938 L 61.316406 110.714844 C 61.316406 110.632812 61.3125 110.558594 61.304688 110.480469 C 61.179688 106.480469 57.894531 103.261719 53.863281 103.261719 C 49.753906 103.261719 46.410156 106.605469 46.410156 110.714844 C 46.410156 114.742188 49.628906 118.027344 53.628906 118.152344 C 53.707031 118.164062 53.785156 118.164062 53.863281 118.164062 L 56.738281 118.164062 L 56.738281 138.1875 L 43.871094 138.1875 C 41.097656 126.351562 35.773438 115.304688 28.414062 106.132812 C 22.082031 98.242188 18.734375 88.714844 18.730469 78.578125 C 18.722656 54.433594 38.355469 34.648438 62.496094 34.480469 C 62.601562 34.480469 62.710938 34.476562 62.816406 34.476562 C 74.535156 34.476562 85.554688 39.019531 93.875 47.28125 C 102.273438 55.617188 106.898438 66.730469 106.898438 78.5625 C 106.898438 88.496094 103.671875 97.875 97.570312 105.679688 C 89.992188 115.378906 84.554688 126.582031 81.773438 138.1875 Z M 87.546875 145.453125 C 87.546875 146.933594 86.34375 148.136719 84.863281 148.136719 L 40.765625 148.136719 C 39.285156 148.136719 38.078125 146.933594 38.078125 145.453125 C 38.078125 143.972656 39.285156 142.765625 40.765625 142.765625 L 84.863281 142.765625 C 86.34375 142.765625 87.546875 143.972656 87.546875 145.453125 Z M 84.863281 158.085938 L 40.765625 158.085938 C 39.285156 158.085938 38.078125 156.882812 38.078125 155.402344 C 38.078125 153.921875 39.285156 152.71875 40.765625 152.71875 L 84.863281 152.71875 C 86.34375 152.71875 87.546875 153.921875 87.546875 155.402344 C 87.546875 156.882812 86.34375 158.085938 84.863281 158.085938 Z M 75.539062 166.472656 C 75.285156 167.394531 74.441406 168.039062 73.484375 168.039062 L 52.140625 168.039062 C 51.1875 168.039062 50.34375 167.394531 50.089844 166.472656 L 49.035156 162.667969 L 76.589844 162.667969 Z M 61.316406 138.1875 L 61.316406 118.164062 L 64.308594 118.164062 L 64.308594 138.1875 Z M 111.476562 78.5625 C 111.476562 65.5 106.371094 53.234375 97.101562 44.03125 C 87.832031 34.828125 75.53125 29.804688 62.464844 29.902344 C 35.8125 30.089844 14.144531 51.925781 14.152344 78.578125 C 14.15625 89.609375 17.953125 100.414062 24.84375 108.996094 C 31.597656 117.414062 36.527344 127.519531 39.199219 138.363281 C 35.945312 139.085938 33.5 141.984375 33.5 145.453125 C 33.5 147.378906 34.261719 149.125 35.488281 150.429688 C 34.261719 151.730469 33.5 153.476562 33.5 155.402344 C 33.5 159.40625 36.761719 162.667969 40.765625 162.667969 L 44.285156 162.667969 L 45.671875 167.695312 C 46.476562 170.589844 49.132812 172.617188 52.140625 172.617188 L 73.484375 172.617188 C 76.492188 172.617188 79.152344 170.589844 79.953125 167.695312 L 81.34375 162.667969 L 84.863281 162.667969 C 88.867188 162.667969 92.125 159.40625 92.125 155.402344 C 92.125 153.476562 91.367188 151.730469 90.140625 150.429688 C 91.367188 149.125 92.125 147.378906 92.125 145.453125 C 92.125 141.992188 89.695312 139.097656 86.449219 138.371094 C 89.136719 127.714844 94.195312 117.4375 101.179688 108.5 C 107.914062 99.878906 111.476562 89.527344 111.476562 78.5625 " fill-opacity="1" fill-rule="nonzero"/></g><g fill="#ffffff" fill-opacity="1"><g transform="translate(62.79619, 248.261839)"><g><path d="M 58.484375 -62.6875 L 36.140625 -34.9375 L 61.671875 0 L 48.078125 0 L 28.625 -26.59375 L 18.9375 -14.46875 L 18.9375 0 L 7.46875 0 L 7.46875 -62.6875 L 18.9375 -62.6875 L 18.9375 -29.6875 L 45.078125 -62.6875 Z M 58.484375 -62.6875 "/></g></g><g transform="translate(125.107119, 248.261839)"><g><path d="M 17.703125 0 L 6.546875 0 L 6.546875 -64.9375 L 17.703125 -64.9375 Z M 17.703125 0 "/></g></g><g transform="translate(149.303301, 248.261839)"><g><path d="M 27.84375 1.421875 C 24.675781 1.421875 21.738281 0.984375 19.03125 0.109375 C 16.332031 -0.765625 13.96875 -2.140625 11.9375 -4.015625 C 9.90625 -5.890625 8.328125 -8.316406 7.203125 -11.296875 C 6.085938 -14.273438 5.53125 -17.867188 5.53125 -22.078125 L 5.53125 -47.375 L 16.59375 -47.375 L 16.59375 -22.40625 C 16.59375 -18.039062 17.53125 -14.703125 19.40625 -12.390625 C 21.28125 -10.085938 24.078125 -8.9375 27.796875 -8.9375 C 31.546875 -8.9375 34.34375 -10.097656 36.1875 -12.421875 C 38.03125 -14.742188 38.953125 -18.070312 38.953125 -22.40625 L 38.953125 -47.375 L 50.046875 -47.375 L 50.046875 -22.078125 C 50.046875 -17.867188 49.484375 -14.273438 48.359375 -11.296875 C 47.242188 -8.316406 45.671875 -5.890625 43.640625 -4.015625 C 41.617188 -2.140625 39.257812 -0.765625 36.5625 0.109375 C 33.875 0.984375 30.96875 1.421875 27.84375 1.421875 Z M 27.84375 1.421875 "/></g></g><g transform="translate(204.885388, 248.261839)"><g><path d="M 33.546875 1.421875 C 31.242188 1.421875 29.046875 1.035156 26.953125 0.265625 C 24.867188 -0.492188 22.984375 -1.570312 21.296875 -2.96875 C 19.609375 -4.363281 18.222656 -6.03125 17.140625 -7.96875 L 17.140625 0 L 6.546875 0 L 6.546875 -64.890625 L 17.703125 -64.890625 L 17.703125 -45.859375 L 17.421875 -39.640625 C 18.460938 -41.484375 19.796875 -43.085938 21.421875 -44.453125 C 23.054688 -45.816406 24.894531 -46.875 26.9375 -47.625 C 28.976562 -48.382812 31.140625 -48.765625 33.421875 -48.765625 C 36.796875 -48.765625 39.890625 -48.109375 42.703125 -46.796875 C 45.515625 -45.492188 47.945312 -43.695312 50 -41.40625 C 52.0625 -39.125 53.660156 -36.46875 54.796875 -33.4375 C 55.929688 -30.40625 56.5 -27.15625 56.5 -23.6875 C 56.5 -20.21875 55.929688 -16.960938 54.796875 -13.921875 C 53.660156 -10.878906 52.054688 -8.203125 49.984375 -5.890625 C 47.910156 -3.585938 45.484375 -1.789062 42.703125 -0.5 C 39.921875 0.78125 36.867188 1.421875 33.546875 1.421875 Z M 31.53125 -8.84375 C 34.039062 -8.84375 36.347656 -9.441406 38.453125 -10.640625 C 40.566406 -11.835938 42.257812 -13.550781 43.53125 -15.78125 C 44.800781 -18.007812 45.4375 -20.644531 45.4375 -23.6875 C 45.4375 -26.664062 44.804688 -29.257812 43.546875 -31.46875 C 42.296875 -33.6875 40.613281 -35.410156 38.5 -36.640625 C 36.394531 -37.867188 34.054688 -38.484375 31.484375 -38.484375 C 29.546875 -38.484375 27.738281 -38.101562 26.0625 -37.34375 C 24.382812 -36.59375 22.90625 -35.539062 21.625 -34.1875 C 20.351562 -32.84375 19.359375 -31.28125 18.640625 -29.5 C 17.921875 -27.71875 17.5625 -25.78125 17.5625 -23.6875 C 17.5625 -21.539062 17.925781 -19.5625 18.65625 -17.75 C 19.394531 -15.9375 20.410156 -14.359375 21.703125 -13.015625 C 22.992188 -11.679688 24.484375 -10.648438 26.171875 -9.921875 C 27.867188 -9.203125 29.65625 -8.84375 31.53125 -8.84375 Z M 31.53125 -8.84375 "/></g></g><g transform="translate(265.813678, 248.261839)"><g><path d="M 51.625 -24.515625 C 51.625 -23.929688 51.609375 -23.378906 51.578125 -22.859375 C 51.546875 -22.335938 51.484375 -21.628906 51.390625 -20.734375 L 14.375 -20.734375 C 14.78125 -18.160156 15.601562 -15.96875 16.84375 -14.15625 C 18.09375 -12.34375 19.640625 -10.953125 21.484375 -9.984375 C 23.328125 -9.015625 25.335938 -8.53125 27.515625 -8.53125 C 30.335938 -8.53125 32.625 -9.085938 34.375 -10.203125 C 36.132812 -11.328125 37.410156 -12.890625 38.203125 -14.890625 L 50.375 -14.890625 C 49.789062 -12.765625 48.828125 -10.71875 47.484375 -8.75 C 46.148438 -6.789062 44.515625 -5.050781 42.578125 -3.53125 C 40.648438 -2.007812 38.429688 -0.804688 35.921875 0.078125 C 33.421875 0.972656 30.695312 1.421875 27.75 1.421875 C 24.1875 1.421875 20.90625 0.769531 17.90625 -0.53125 C 14.90625 -1.832031 12.304688 -3.632812 10.109375 -5.9375 C 7.921875 -8.25 6.21875 -10.925781 5 -13.96875 C 3.789062 -17.007812 3.1875 -20.25 3.1875 -23.6875 C 3.1875 -27.15625 3.789062 -30.40625 5 -33.4375 C 6.21875 -36.46875 7.921875 -39.132812 10.109375 -41.4375 C 12.304688 -43.738281 14.90625 -45.539062 17.90625 -46.84375 C 20.90625 -48.15625 24.1875 -48.8125 27.75 -48.8125 C 31.3125 -48.8125 34.554688 -48.164062 37.484375 -46.875 C 40.421875 -45.582031 42.941406 -43.804688 45.046875 -41.546875 C 47.148438 -39.285156 48.769531 -36.695312 49.90625 -33.78125 C 51.050781 -30.863281 51.625 -27.773438 51.625 -24.515625 Z M 14.84375 -29.359375 L 40.234375 -29.359375 C 40.078125 -31.140625 39.414062 -32.757812 38.25 -34.21875 C 37.082031 -35.675781 35.578125 -36.847656 33.734375 -37.734375 C 31.890625 -38.628906 29.878906 -39.078125 27.703125 -39.078125 C 25.828125 -39.078125 24.023438 -38.734375 22.296875 -38.046875 C 20.578125 -37.359375 19.066406 -36.296875 17.765625 -34.859375 C 16.460938 -33.429688 15.488281 -31.597656 14.84375 -29.359375 Z M 14.84375 -29.359375 "/></g></g></g><g fill="#ffffff" fill-opacity="1"><g transform="translate(62.79619, 328.353602)"><g><path d="M 31.75 0 L 7.46875 0 L 7.46875 -62.6875 L 31.609375 -62.6875 C 36.617188 -62.6875 41.164062 -61.9375 45.25 -60.4375 C 49.34375 -58.945312 52.851562 -56.820312 55.78125 -54.0625 C 58.71875 -51.300781 60.976562 -48.003906 62.5625 -44.171875 C 64.144531 -40.347656 64.9375 -36.085938 64.9375 -31.390625 C 64.9375 -26.679688 64.144531 -22.398438 62.5625 -18.546875 C 60.976562 -14.691406 58.726562 -11.378906 55.8125 -8.609375 C 52.894531 -5.847656 49.398438 -3.722656 45.328125 -2.234375 C 41.253906 -0.742188 36.726562 0 31.75 0 Z M 18.765625 -52.5 L 18.765625 -10.234375 L 31.390625 -10.234375 C 35.960938 -10.234375 39.890625 -11.082031 43.171875 -12.78125 C 46.460938 -14.488281 48.984375 -16.910156 50.734375 -20.046875 C 52.492188 -23.179688 53.375 -26.898438 53.375 -31.203125 C 53.375 -35.472656 52.507812 -39.207031 50.78125 -42.40625 C 49.0625 -45.601562 46.554688 -48.082031 43.265625 -49.84375 C 39.984375 -51.613281 35.992188 -52.5 31.296875 -52.5 Z M 18.765625 -52.5 "/></g></g><g transform="translate(130.822027, 328.353602)"><g><path d="M 12.03125 -54.75 C 9.875 -54.75 8.1875 -55.367188 6.96875 -56.609375 C 5.757812 -57.859375 5.15625 -59.375 5.15625 -61.15625 C 5.15625 -62.875 5.757812 -64.363281 6.96875 -65.625 C 8.1875 -66.882812 9.890625 -67.515625 12.078125 -67.515625 C 14.316406 -67.515625 16.039062 -66.882812 17.25 -65.625 C 18.46875 -64.363281 19.078125 -62.875 19.078125 -61.15625 C 19.078125 -59.375 18.46875 -57.859375 17.25 -56.609375 C 16.039062 -55.367188 14.300781 -54.75 12.03125 -54.75 Z M 17.703125 0 L 6.546875 0 L 6.546875 -47.375 L 17.703125 -47.375 Z M 17.703125 0 "/></g></g><g transform="translate(155.018209, 328.353602)"><g><path d="M 28.25 17.96875 C 24.195312 17.96875 20.722656 17.460938 17.828125 16.453125 C 14.941406 15.441406 12.578125 14.070312 10.734375 12.34375 C 8.890625 10.625 7.515625 8.6875 6.609375 6.53125 C 5.703125 4.382812 5.203125 2.191406 5.109375 -0.046875 L 15.625 -0.046875 C 15.957031 1.609375 16.566406 3.082031 17.453125 4.375 C 18.347656 5.664062 19.664062 6.6875 21.40625 7.4375 C 23.144531 8.195312 25.410156 8.578125 28.203125 8.578125 C 30.785156 8.578125 32.984375 8.207031 34.796875 7.46875 C 36.609375 6.726562 38.082031 5.710938 39.21875 4.421875 C 40.351562 3.128906 41.179688 1.648438 41.703125 -0.015625 C 42.234375 -1.691406 42.5 -3.453125 42.5 -5.296875 L 42.5 -10.140625 C 40.894531 -7.035156 38.640625 -4.757812 35.734375 -3.3125 C 32.835938 -1.875 29.625 -1.15625 26.09375 -1.15625 C 22.738281 -1.15625 19.65625 -1.769531 16.84375 -3 C 14.03125 -4.226562 11.609375 -5.914062 9.578125 -8.0625 C 7.554688 -10.21875 5.984375 -12.710938 4.859375 -15.546875 C 3.742188 -18.390625 3.1875 -21.425781 3.1875 -24.65625 C 3.1875 -27.882812 3.738281 -30.941406 4.84375 -33.828125 C 5.945312 -36.710938 7.503906 -39.285156 9.515625 -41.546875 C 11.523438 -43.804688 13.90625 -45.582031 16.65625 -46.875 C 19.40625 -48.164062 22.425781 -48.8125 25.71875 -48.8125 C 28.539062 -48.8125 31.066406 -48.359375 33.296875 -47.453125 C 35.523438 -46.546875 37.414062 -45.367188 38.96875 -43.921875 C 40.519531 -42.472656 41.710938 -40.9375 42.546875 -39.3125 L 42.546875 -47.375 L 53.140625 -47.375 L 53.140625 -5.4375 C 53.140625 -2.113281 52.601562 0.960938 51.53125 3.796875 C 50.457031 6.640625 48.859375 9.117188 46.734375 11.234375 C 44.609375 13.359375 42.003906 15.007812 38.921875 16.1875 C 35.835938 17.375 32.28125 17.96875 28.25 17.96875 Z M 28.15625 -10.828125 C 30.09375 -10.828125 31.90625 -11.1875 33.59375 -11.90625 C 35.289062 -12.632812 36.773438 -13.644531 38.046875 -14.9375 C 39.316406 -16.226562 40.304688 -17.707031 41.015625 -19.375 C 41.722656 -21.050781 42.078125 -22.828125 42.078125 -24.703125 C 42.078125 -26.546875 41.722656 -28.296875 41.015625 -29.953125 C 40.304688 -31.617188 39.320312 -33.085938 38.0625 -34.359375 C 36.8125 -35.628906 35.335938 -36.632812 33.640625 -37.375 C 31.953125 -38.113281 30.125 -38.484375 28.15625 -38.484375 C 25.550781 -38.484375 23.191406 -37.898438 21.078125 -36.734375 C 18.972656 -35.566406 17.304688 -33.953125 16.078125 -31.890625 C 14.847656 -29.835938 14.234375 -27.441406 14.234375 -24.703125 C 14.234375 -22.023438 14.847656 -19.640625 16.078125 -17.546875 C 17.304688 -15.460938 18.972656 -13.820312 21.078125 -12.625 C 23.191406 -11.425781 25.550781 -10.828125 28.15625 -10.828125 Z M 28.15625 -10.828125 "/></g></g><g transform="translate(214.702125, 328.353602)"><g><path d="M 12.03125 -54.75 C 9.875 -54.75 8.1875 -55.367188 6.96875 -56.609375 C 5.757812 -57.859375 5.15625 -59.375 5.15625 -61.15625 C 5.15625 -62.875 5.757812 -64.363281 6.96875 -65.625 C 8.1875 -66.882812 9.890625 -67.515625 12.078125 -67.515625 C 14.316406 -67.515625 16.039062 -66.882812 17.25 -65.625 C 18.46875 -64.363281 19.078125 -62.875 19.078125 -61.15625 C 19.078125 -59.375 18.46875 -57.859375 17.25 -56.609375 C 16.039062 -55.367188 14.300781 -54.75 12.03125 -54.75 Z M 17.703125 0 L 6.546875 0 L 6.546875 -47.375 L 17.703125 -47.375 Z M 17.703125 0 "/></g></g><g transform="translate(238.898307, 328.353602)"><g><path d="M 35.671875 0 L 26.046875 0 C 24.628906 0 23.175781 -0.128906 21.6875 -0.390625 C 20.195312 -0.648438 18.773438 -1.132812 17.421875 -1.84375 C 16.066406 -2.550781 14.859375 -3.570312 13.796875 -4.90625 C 12.742188 -6.238281 11.898438 -7.972656 11.265625 -10.109375 C 10.640625 -12.242188 10.328125 -14.878906 10.328125 -18.015625 L 10.328125 -37.796875 L 0.5 -37.796875 L 0.5 -47.375 L 10.328125 -47.375 L 10.328125 -61.25 L 21.484375 -61.34375 L 21.484375 -47.375 L 35.671875 -47.375 L 35.671875 -37.796875 L 21.484375 -37.796875 L 21.484375 -17.515625 C 21.484375 -15.304688 21.800781 -13.597656 22.4375 -12.390625 C 23.082031 -11.191406 23.9375 -10.367188 25 -9.921875 C 26.0625 -9.484375 27.175781 -9.265625 28.34375 -9.265625 L 35.671875 -9.265625 Z M 35.671875 0 "/></g></g><g transform="translate(277.059143, 328.353602)"><g><path d="M 25.484375 1.421875 C 22.285156 1.421875 19.328125 0.78125 16.609375 -0.5 C 13.890625 -1.789062 11.523438 -3.585938 9.515625 -5.890625 C 7.503906 -8.203125 5.945312 -10.878906 4.84375 -13.921875 C 3.738281 -16.960938 3.1875 -20.21875 3.1875 -23.6875 C 3.1875 -27.15625 3.742188 -30.40625 4.859375 -33.4375 C 5.984375 -36.46875 7.550781 -39.132812 9.5625 -41.4375 C 11.570312 -43.738281 13.925781 -45.539062 16.625 -46.84375 C 19.332031 -48.15625 22.269531 -48.8125 25.4375 -48.8125 C 29.3125 -48.8125 32.753906 -47.972656 35.765625 -46.296875 C 38.773438 -44.617188 41.035156 -42.304688 42.546875 -39.359375 L 42.546875 -47.375 L 53.140625 -47.375 L 53.140625 0 L 42.546875 0 L 42.546875 -7.96875 C 41.003906 -5.019531 38.734375 -2.71875 35.734375 -1.0625 C 32.742188 0.59375 29.328125 1.421875 25.484375 1.421875 Z M 28.15625 -8.890625 C 30.09375 -8.890625 31.90625 -9.265625 33.59375 -10.015625 C 35.289062 -10.773438 36.773438 -11.820312 38.046875 -13.15625 C 39.316406 -14.488281 40.304688 -16.054688 41.015625 -17.859375 C 41.722656 -19.660156 42.078125 -21.601562 42.078125 -23.6875 C 42.078125 -25.75 41.710938 -27.675781 40.984375 -29.46875 C 40.265625 -31.269531 39.273438 -32.84375 38.015625 -34.1875 C 36.765625 -35.539062 35.289062 -36.59375 33.59375 -37.34375 C 31.90625 -38.101562 30.09375 -38.484375 28.15625 -38.484375 C 25.601562 -38.484375 23.273438 -37.867188 21.171875 -36.640625 C 19.066406 -35.410156 17.382812 -33.6875 16.125 -31.46875 C 14.863281 -29.257812 14.234375 -26.664062 14.234375 -23.6875 C 14.234375 -20.613281 14.867188 -17.96875 16.140625 -15.75 C 17.421875 -13.539062 19.117188 -11.84375 21.234375 -10.65625 C 23.359375 -9.476562 25.664062 -8.890625 28.15625 -8.890625 Z M 28.15625 -8.890625 "/></g></g><g transform="translate(336.743058, 328.353602)"><g><path d="M 17.703125 0 L 6.546875 0 L 6.546875 -64.9375 L 17.703125 -64.9375 Z M 17.703125 0 "/></g></g></g></svg>