<svg xmlns="http://www.w3.org/2000/svg" xmlns:xlink="http://www.w3.org/1999/xlink" width="127" zoomAndPan="magnify" viewBox="0 0 95.25 86.999996" height="116" preserveAspectRatio="xMidYMid meet" version="1.0"><defs><g/><clipPath id="b610096970"><path d="M 21.105469 0.339844 L 30.035156 0.339844 L 30.035156 9.269531 L 21.105469 9.269531 Z M 21.105469 0.339844 " clip-rule="nonzero"/></clipPath><clipPath id="9d92d3f6c3"><path d="M 0 9.597656 L 20.835938 9.597656 L 20.835938 40.109375 L 0 40.109375 Z M 0 9.597656 " clip-rule="nonzero"/></clipPath></defs><g clip-path="url(#b610096970)"><path fill="#d7df23" d="M 28.855469 9.269531 L 30.035156 9.269531 L 30.035156 0.339844 L 21.105469 0.339844 L 21.105469 1.519531 C 24.824219 2.613281 27.761719 5.546875 28.855469 9.269531 Z M 28.855469 9.269531 " fill-opacity="1" fill-rule="nonzero"/></g><g fill="#ffffff" fill-opacity="1"><g transform="translate(10.389178, 53.883678)"><g><path d="M 11.0625 -11.859375 L 6.84375 -6.609375 L 11.671875 0 L 9.09375 0 L 5.421875 -5.03125 L 3.578125 -2.734375 L 3.578125 0 L 1.40625 0 L 1.40625 -11.859375 L 3.578125 -11.859375 L 3.578125 -5.609375 L 8.53125 -11.859375 Z M 11.0625 -11.859375 "/></g></g><g transform="translate(22.179156, 53.883678)"><g><path d="M 3.34375 0 L 1.234375 0 L 1.234375 -12.28125 L 3.34375 -12.28125 Z M 3.34375 0 "/></g></g><g transform="translate(26.757365, 53.883678)"><g><path d="M 5.265625 0.265625 C 4.671875 0.265625 4.113281 0.179688 3.59375 0.015625 C 3.082031 -0.148438 2.632812 -0.410156 2.25 -0.765625 C 1.875 -1.117188 1.578125 -1.578125 1.359375 -2.140625 C 1.148438 -2.703125 1.046875 -3.378906 1.046875 -4.171875 L 1.046875 -8.96875 L 3.140625 -8.96875 L 3.140625 -4.234375 C 3.140625 -3.410156 3.316406 -2.78125 3.671875 -2.34375 C 4.023438 -1.90625 4.554688 -1.6875 5.265625 -1.6875 C 5.972656 -1.6875 6.5 -1.90625 6.84375 -2.34375 C 7.195312 -2.789062 7.375 -3.421875 7.375 -4.234375 L 7.375 -8.96875 L 9.46875 -8.96875 L 9.46875 -4.171875 C 9.46875 -3.378906 9.359375 -2.703125 9.140625 -2.140625 C 8.929688 -1.578125 8.632812 -1.117188 8.25 -0.765625 C 7.875 -0.410156 7.429688 -0.148438 6.921875 0.015625 C 6.410156 0.179688 5.859375 0.265625 5.265625 0.265625 Z M 5.265625 0.265625 "/></g></g><g transform="translate(37.274164, 53.883678)"><g><path d="M 6.34375 0.265625 C 5.90625 0.265625 5.488281 0.191406 5.09375 0.046875 C 4.707031 -0.0976562 4.351562 -0.300781 4.03125 -0.5625 C 3.707031 -0.820312 3.445312 -1.140625 3.25 -1.515625 L 3.25 0 L 1.234375 0 L 1.234375 -12.28125 L 3.34375 -12.28125 L 3.34375 -8.671875 L 3.296875 -7.5 C 3.492188 -7.84375 3.742188 -8.144531 4.046875 -8.40625 C 4.359375 -8.664062 4.707031 -8.863281 5.09375 -9 C 5.476562 -9.144531 5.890625 -9.21875 6.328125 -9.21875 C 6.960938 -9.21875 7.546875 -9.09375 8.078125 -8.84375 C 8.609375 -8.601562 9.066406 -8.265625 9.453125 -7.828125 C 9.847656 -7.398438 10.148438 -6.898438 10.359375 -6.328125 C 10.578125 -5.753906 10.6875 -5.140625 10.6875 -4.484375 C 10.6875 -3.828125 10.578125 -3.207031 10.359375 -2.625 C 10.148438 -2.050781 9.847656 -1.546875 9.453125 -1.109375 C 9.066406 -0.679688 8.609375 -0.34375 8.078125 -0.09375 C 7.554688 0.144531 6.976562 0.265625 6.34375 0.265625 Z M 5.96875 -1.671875 C 6.445312 -1.671875 6.882812 -1.785156 7.28125 -2.015625 C 7.675781 -2.242188 7.992188 -2.566406 8.234375 -2.984375 C 8.472656 -3.410156 8.59375 -3.910156 8.59375 -4.484375 C 8.59375 -5.046875 8.472656 -5.535156 8.234375 -5.953125 C 8.003906 -6.367188 7.6875 -6.691406 7.28125 -6.921875 C 6.882812 -7.160156 6.441406 -7.28125 5.953125 -7.28125 C 5.585938 -7.28125 5.242188 -7.207031 4.921875 -7.0625 C 4.609375 -6.925781 4.332031 -6.726562 4.09375 -6.46875 C 3.851562 -6.21875 3.664062 -5.921875 3.53125 -5.578125 C 3.394531 -5.242188 3.328125 -4.878906 3.328125 -4.484375 C 3.328125 -4.078125 3.394531 -3.703125 3.53125 -3.359375 C 3.664062 -3.015625 3.851562 -2.710938 4.09375 -2.453125 C 4.34375 -2.203125 4.628906 -2.007812 4.953125 -1.875 C 5.273438 -1.738281 5.613281 -1.671875 5.96875 -1.671875 Z M 5.96875 -1.671875 "/></g></g><g transform="translate(48.80253, 53.883678)"><g><path d="M 9.765625 -4.640625 C 9.765625 -4.523438 9.757812 -4.414062 9.75 -4.3125 C 9.75 -4.21875 9.738281 -4.085938 9.71875 -3.921875 L 2.71875 -3.921875 C 2.789062 -3.429688 2.945312 -3.015625 3.1875 -2.671875 C 3.425781 -2.328125 3.71875 -2.0625 4.0625 -1.875 C 4.414062 -1.695312 4.796875 -1.609375 5.203125 -1.609375 C 5.742188 -1.609375 6.175781 -1.710938 6.5 -1.921875 C 6.832031 -2.140625 7.078125 -2.4375 7.234375 -2.8125 L 9.53125 -2.8125 C 9.414062 -2.414062 9.234375 -2.03125 8.984375 -1.65625 C 8.734375 -1.28125 8.425781 -0.945312 8.0625 -0.65625 C 7.695312 -0.375 7.273438 -0.148438 6.796875 0.015625 C 6.328125 0.179688 5.8125 0.265625 5.25 0.265625 C 4.570312 0.265625 3.945312 0.144531 3.375 -0.09375 C 2.8125 -0.34375 2.320312 -0.6875 1.90625 -1.125 C 1.5 -1.5625 1.179688 -2.066406 0.953125 -2.640625 C 0.722656 -3.210938 0.609375 -3.828125 0.609375 -4.484375 C 0.609375 -5.140625 0.722656 -5.753906 0.953125 -6.328125 C 1.179688 -6.898438 1.5 -7.40625 1.90625 -7.84375 C 2.320312 -8.28125 2.8125 -8.617188 3.375 -8.859375 C 3.945312 -9.109375 4.570312 -9.234375 5.25 -9.234375 C 5.925781 -9.234375 6.539062 -9.109375 7.09375 -8.859375 C 7.644531 -8.617188 8.117188 -8.285156 8.515625 -7.859375 C 8.921875 -7.429688 9.226562 -6.941406 9.4375 -6.390625 C 9.65625 -5.835938 9.765625 -5.253906 9.765625 -4.640625 Z M 2.8125 -5.5625 L 7.609375 -5.5625 C 7.578125 -5.894531 7.453125 -6.195312 7.234375 -6.46875 C 7.015625 -6.75 6.726562 -6.972656 6.375 -7.140625 C 6.03125 -7.304688 5.648438 -7.390625 5.234375 -7.390625 C 4.878906 -7.390625 4.539062 -7.320312 4.21875 -7.1875 C 3.894531 -7.0625 3.609375 -6.863281 3.359375 -6.59375 C 3.109375 -6.320312 2.925781 -5.976562 2.8125 -5.5625 Z M 2.8125 -5.5625 "/></g></g></g><g fill="#ffffff" fill-opacity="1"><g transform="translate(10.389178, 69.038003)"><g><path d="M 6.015625 0 L 1.40625 0 L 1.40625 -11.859375 L 5.984375 -11.859375 C 6.929688 -11.859375 7.789062 -11.71875 8.5625 -11.4375 C 9.332031 -11.15625 9.992188 -10.75 10.546875 -10.21875 C 11.109375 -9.695312 11.535156 -9.070312 11.828125 -8.34375 C 12.128906 -7.625 12.28125 -6.820312 12.28125 -5.9375 C 12.28125 -5.050781 12.128906 -4.242188 11.828125 -3.515625 C 11.535156 -2.785156 11.113281 -2.15625 10.5625 -1.625 C 10.007812 -1.101562 9.347656 -0.703125 8.578125 -0.421875 C 7.804688 -0.140625 6.953125 0 6.015625 0 Z M 3.546875 -9.9375 L 3.546875 -1.9375 L 5.9375 -1.9375 C 6.800781 -1.9375 7.546875 -2.097656 8.171875 -2.421875 C 8.796875 -2.742188 9.269531 -3.203125 9.59375 -3.796875 C 9.925781 -4.390625 10.09375 -5.09375 10.09375 -5.90625 C 10.09375 -6.707031 9.929688 -7.410156 9.609375 -8.015625 C 9.285156 -8.628906 8.8125 -9.101562 8.1875 -9.4375 C 7.5625 -9.769531 6.804688 -9.9375 5.921875 -9.9375 Z M 3.546875 -9.9375 "/></g></g><g transform="translate(23.260485, 69.038003)"><g><path d="M 2.28125 -10.359375 C 1.875 -10.359375 1.554688 -10.472656 1.328125 -10.703125 C 1.097656 -10.941406 0.984375 -11.234375 0.984375 -11.578125 C 0.984375 -11.898438 1.097656 -12.179688 1.328125 -12.421875 C 1.554688 -12.660156 1.875 -12.78125 2.28125 -12.78125 C 2.707031 -12.78125 3.035156 -12.660156 3.265625 -12.421875 C 3.492188 -12.179688 3.609375 -11.898438 3.609375 -11.578125 C 3.609375 -11.234375 3.492188 -10.941406 3.265625 -10.703125 C 3.035156 -10.472656 2.707031 -10.359375 2.28125 -10.359375 Z M 3.34375 0 L 1.234375 0 L 1.234375 -8.96875 L 3.34375 -8.96875 Z M 3.34375 0 "/></g></g><g transform="translate(27.838694, 69.038003)"><g><path d="M 5.34375 3.40625 C 4.570312 3.40625 3.914062 3.304688 3.375 3.109375 C 2.832031 2.921875 2.382812 2.660156 2.03125 2.328125 C 1.6875 2.003906 1.425781 1.640625 1.25 1.234375 C 1.082031 0.828125 0.988281 0.410156 0.96875 -0.015625 L 2.953125 -0.015625 C 3.015625 0.304688 3.128906 0.585938 3.296875 0.828125 C 3.472656 1.066406 3.722656 1.257812 4.046875 1.40625 C 4.378906 1.550781 4.8125 1.625 5.34375 1.625 C 5.820312 1.625 6.234375 1.550781 6.578125 1.40625 C 6.921875 1.269531 7.203125 1.078125 7.421875 0.828125 C 7.640625 0.585938 7.796875 0.3125 7.890625 0 C 7.992188 -0.320312 8.046875 -0.65625 8.046875 -1 L 8.046875 -1.921875 C 7.742188 -1.328125 7.316406 -0.894531 6.765625 -0.625 C 6.210938 -0.351562 5.601562 -0.21875 4.9375 -0.21875 C 4.300781 -0.21875 3.71875 -0.332031 3.1875 -0.5625 C 2.65625 -0.800781 2.195312 -1.125 1.8125 -1.53125 C 1.425781 -1.9375 1.128906 -2.40625 0.921875 -2.9375 C 0.710938 -3.476562 0.609375 -4.054688 0.609375 -4.671875 C 0.609375 -5.273438 0.710938 -5.847656 0.921875 -6.390625 C 1.128906 -6.941406 1.421875 -7.429688 1.796875 -7.859375 C 2.179688 -8.285156 2.632812 -8.617188 3.15625 -8.859375 C 3.675781 -9.109375 4.242188 -9.234375 4.859375 -9.234375 C 5.398438 -9.234375 5.878906 -9.144531 6.296875 -8.96875 C 6.722656 -8.800781 7.082031 -8.582031 7.375 -8.3125 C 7.664062 -8.039062 7.890625 -7.75 8.046875 -7.4375 L 8.046875 -8.96875 L 10.046875 -8.96875 L 10.046875 -1.03125 C 10.046875 -0.40625 9.941406 0.175781 9.734375 0.71875 C 9.535156 1.257812 9.234375 1.726562 8.828125 2.125 C 8.429688 2.53125 7.941406 2.84375 7.359375 3.0625 C 6.773438 3.289062 6.101562 3.40625 5.34375 3.40625 Z M 5.328125 -2.046875 C 5.691406 -2.046875 6.035156 -2.113281 6.359375 -2.25 C 6.679688 -2.382812 6.960938 -2.570312 7.203125 -2.8125 C 7.441406 -3.0625 7.628906 -3.34375 7.765625 -3.65625 C 7.898438 -3.976562 7.96875 -4.316406 7.96875 -4.671875 C 7.96875 -5.023438 7.898438 -5.359375 7.765625 -5.671875 C 7.628906 -5.984375 7.441406 -6.257812 7.203125 -6.5 C 6.960938 -6.738281 6.679688 -6.925781 6.359375 -7.0625 C 6.046875 -7.207031 5.703125 -7.28125 5.328125 -7.28125 C 4.835938 -7.28125 4.390625 -7.171875 3.984375 -6.953125 C 3.585938 -6.734375 3.269531 -6.425781 3.03125 -6.03125 C 2.800781 -5.644531 2.6875 -5.191406 2.6875 -4.671875 C 2.6875 -4.171875 2.800781 -3.722656 3.03125 -3.328125 C 3.269531 -2.929688 3.585938 -2.617188 3.984375 -2.390625 C 4.390625 -2.160156 4.835938 -2.046875 5.328125 -2.046875 Z M 5.328125 -2.046875 "/></g></g><g transform="translate(39.131609, 69.038003)"><g><path d="M 2.28125 -10.359375 C 1.875 -10.359375 1.554688 -10.472656 1.328125 -10.703125 C 1.097656 -10.941406 0.984375 -11.234375 0.984375 -11.578125 C 0.984375 -11.898438 1.097656 -12.179688 1.328125 -12.421875 C 1.554688 -12.660156 1.875 -12.78125 2.28125 -12.78125 C 2.707031 -12.78125 3.035156 -12.660156 3.265625 -12.421875 C 3.492188 -12.179688 3.609375 -11.898438 3.609375 -11.578125 C 3.609375 -11.234375 3.492188 -10.941406 3.265625 -10.703125 C 3.035156 -10.472656 2.707031 -10.359375 2.28125 -10.359375 Z M 3.34375 0 L 1.234375 0 L 1.234375 -8.96875 L 3.34375 -8.96875 Z M 3.34375 0 "/></g></g><g transform="translate(43.709818, 69.038003)"><g><path d="M 6.75 0 L 4.921875 0 C 4.660156 0 4.390625 -0.0195312 4.109375 -0.0625 C 3.828125 -0.113281 3.554688 -0.207031 3.296875 -0.34375 C 3.035156 -0.476562 2.804688 -0.671875 2.609375 -0.921875 C 2.410156 -1.179688 2.25 -1.507812 2.125 -1.90625 C 2.007812 -2.3125 1.953125 -2.8125 1.953125 -3.40625 L 1.953125 -7.15625 L 0.09375 -7.15625 L 0.09375 -8.96875 L 1.953125 -8.96875 L 1.953125 -11.59375 L 4.0625 -11.609375 L 4.0625 -8.96875 L 6.75 -8.96875 L 6.75 -7.15625 L 4.0625 -7.15625 L 4.0625 -3.3125 C 4.0625 -2.894531 4.125 -2.570312 4.25 -2.34375 C 4.375 -2.113281 4.535156 -1.957031 4.734375 -1.875 C 4.929688 -1.789062 5.140625 -1.75 5.359375 -1.75 L 6.75 -1.75 Z M 6.75 0 "/></g></g><g transform="translate(50.930307, 69.038003)"><g><path d="M 4.828125 0.265625 C 4.222656 0.265625 3.660156 0.144531 3.140625 -0.09375 C 2.628906 -0.34375 2.179688 -0.679688 1.796875 -1.109375 C 1.421875 -1.546875 1.128906 -2.050781 0.921875 -2.625 C 0.710938 -3.207031 0.609375 -3.828125 0.609375 -4.484375 C 0.609375 -5.140625 0.710938 -5.753906 0.921875 -6.328125 C 1.128906 -6.898438 1.421875 -7.40625 1.796875 -7.84375 C 2.179688 -8.28125 2.628906 -8.617188 3.140625 -8.859375 C 3.660156 -9.109375 4.21875 -9.234375 4.8125 -9.234375 C 5.539062 -9.234375 6.191406 -9.070312 6.765625 -8.75 C 7.335938 -8.4375 7.765625 -8.003906 8.046875 -7.453125 L 8.046875 -8.96875 L 10.046875 -8.96875 L 10.046875 0 L 8.046875 0 L 8.046875 -1.515625 C 7.753906 -0.953125 7.320312 -0.515625 6.75 -0.203125 C 6.1875 0.109375 5.546875 0.265625 4.828125 0.265625 Z M 5.328125 -1.6875 C 5.691406 -1.6875 6.035156 -1.753906 6.359375 -1.890625 C 6.679688 -2.035156 6.960938 -2.234375 7.203125 -2.484375 C 7.441406 -2.742188 7.628906 -3.039062 7.765625 -3.375 C 7.898438 -3.71875 7.96875 -4.085938 7.96875 -4.484375 C 7.96875 -4.867188 7.894531 -5.234375 7.75 -5.578125 C 7.613281 -5.921875 7.425781 -6.21875 7.1875 -6.46875 C 6.957031 -6.726562 6.679688 -6.925781 6.359375 -7.0625 C 6.035156 -7.207031 5.691406 -7.28125 5.328125 -7.28125 C 4.847656 -7.28125 4.40625 -7.160156 4 -6.921875 C 3.601562 -6.691406 3.285156 -6.367188 3.046875 -5.953125 C 2.804688 -5.535156 2.6875 -5.046875 2.6875 -4.484375 C 2.6875 -3.898438 2.804688 -3.398438 3.046875 -2.984375 C 3.296875 -2.566406 3.617188 -2.242188 4.015625 -2.015625 C 4.421875 -1.796875 4.859375 -1.6875 5.328125 -1.6875 Z M 5.328125 -1.6875 "/></g></g><g transform="translate(62.223222, 69.038003)"><g><path d="M 3.34375 0 L 1.234375 0 L 1.234375 -12.28125 L 3.34375 -12.28125 Z M 3.34375 0 "/></g></g></g><g clip-path="url(#9d92d3f6c3)"><path fill="#ffffff" d="M 8.484375 27.457031 C 8.148438 27.457031 7.871094 27.183594 7.871094 26.847656 C 7.871094 26.507812 8.148438 26.234375 8.484375 26.234375 C 8.824219 26.234375 9.097656 26.507812 9.097656 26.847656 L 9.097656 27.457031 Z M 11.6875 26.847656 C 11.6875 26.507812 11.960938 26.234375 12.300781 26.234375 C 12.636719 26.234375 12.914062 26.507812 12.914062 26.847656 C 12.914062 27.183594 12.636719 27.457031 12.300781 27.457031 L 11.6875 27.457031 Z M 14.433594 32.703125 L 11.6875 32.703125 L 11.6875 28.433594 L 12.300781 28.433594 C 12.316406 28.433594 12.332031 28.433594 12.351562 28.429688 C 13.203125 28.40625 13.890625 27.703125 13.890625 26.847656 C 13.890625 25.96875 13.175781 25.257812 12.300781 25.257812 C 11.441406 25.257812 10.742188 25.941406 10.714844 26.796875 C 10.710938 26.8125 10.710938 26.828125 10.710938 26.847656 L 10.710938 27.457031 L 10.074219 27.457031 L 10.074219 26.847656 C 10.074219 26.828125 10.074219 26.8125 10.070312 26.796875 C 10.042969 25.941406 9.34375 25.257812 8.484375 25.257812 C 7.609375 25.257812 6.898438 25.96875 6.898438 26.847656 C 6.898438 27.703125 7.582031 28.40625 8.433594 28.429688 C 8.453125 28.433594 8.46875 28.433594 8.484375 28.433594 L 9.097656 28.433594 L 9.097656 32.703125 L 6.355469 32.703125 C 5.765625 30.179688 4.628906 27.824219 3.0625 25.871094 C 1.710938 24.1875 0.996094 22.15625 0.996094 19.996094 C 0.996094 14.851562 5.179688 10.632812 10.324219 10.597656 C 10.347656 10.597656 10.371094 10.597656 10.394531 10.597656 C 12.890625 10.597656 15.238281 11.566406 17.011719 13.324219 C 18.804688 15.101562 19.789062 17.472656 19.789062 19.992188 C 19.789062 22.109375 19.101562 24.109375 17.800781 25.773438 C 16.1875 27.839844 15.027344 30.226562 14.433594 32.703125 Z M 15.664062 34.25 C 15.664062 34.566406 15.40625 34.824219 15.09375 34.824219 L 5.695312 34.824219 C 5.378906 34.824219 5.121094 34.566406 5.121094 34.25 C 5.121094 33.933594 5.378906 33.675781 5.695312 33.675781 L 15.09375 33.675781 C 15.40625 33.675781 15.664062 33.933594 15.664062 34.25 Z M 15.09375 36.941406 L 5.695312 36.941406 C 5.378906 36.941406 5.121094 36.6875 5.121094 36.371094 C 5.121094 36.054688 5.378906 35.796875 5.695312 35.796875 L 15.09375 35.796875 C 15.40625 35.796875 15.664062 36.054688 15.664062 36.371094 C 15.664062 36.6875 15.40625 36.941406 15.09375 36.941406 Z M 13.105469 38.730469 C 13.050781 38.925781 12.871094 39.0625 12.667969 39.0625 L 8.117188 39.0625 C 7.914062 39.0625 7.734375 38.925781 7.679688 38.730469 L 7.457031 37.917969 L 13.328125 37.917969 Z M 10.074219 32.703125 L 10.074219 28.433594 L 10.710938 28.433594 L 10.710938 32.703125 Z M 20.765625 19.992188 C 20.765625 17.207031 19.675781 14.59375 17.699219 12.632812 C 15.726562 10.671875 13.105469 9.601562 10.316406 9.621094 C 4.636719 9.660156 0.0195312 14.316406 0.0195312 19.996094 C 0.0234375 22.347656 0.832031 24.648438 2.300781 26.480469 C 3.738281 28.273438 4.789062 30.429688 5.359375 32.738281 C 4.664062 32.894531 4.144531 33.511719 4.144531 34.25 C 4.144531 34.660156 4.308594 35.03125 4.570312 35.308594 C 4.308594 35.585938 4.144531 35.960938 4.144531 36.371094 C 4.144531 37.222656 4.839844 37.917969 5.695312 37.917969 L 6.445312 37.917969 L 6.738281 38.992188 C 6.910156 39.609375 7.476562 40.039062 8.117188 40.039062 L 12.667969 40.039062 C 13.308594 40.039062 13.875 39.609375 14.046875 38.992188 L 14.34375 37.917969 L 15.09375 37.917969 C 15.945312 37.917969 16.640625 37.222656 16.640625 36.371094 C 16.640625 35.960938 16.480469 35.585938 16.21875 35.308594 C 16.480469 35.03125 16.640625 34.660156 16.640625 34.25 C 16.640625 33.511719 16.121094 32.894531 15.429688 32.742188 C 16.003906 30.46875 17.082031 28.277344 18.570312 26.375 C 20.003906 24.535156 20.765625 22.332031 20.765625 19.992188 " fill-opacity="1" fill-rule="nonzero"/></g></svg>